<?xml version="1.0" standalone="no"?>
<!DOCTYPE svg PUBLIC "-//W3C//DTD SVG 20010904//EN"
 "http://www.w3.org/TR/2001/REC-SVG-20010904/DTD/svg10.dtd">
<svg version="1.0" xmlns="http://www.w3.org/2000/svg"
 width="700.000000pt" height="700.000000pt" viewBox="0 0 700.000000 700.000000"
 preserveAspectRatio="xMidYMid meet">
<metadata>
Created by potrace 1.14, written by Peter Selinger 2001-2017
</metadata>
<g transform="translate(0.000000,700.000000) scale(0.100000,-0.100000)"
fill="#000000" stroke="none">
<path d="M2610 6216 c-25 -7 -76 -27 -115 -45 -38 -18 -70 -31 -70 -29 0 1
-84 -39 -187 -90 -156 -76 -197 -101 -242 -146 -55 -56 -95 -127 -114 -207
-12 -48 -6 -258 12 -399 6 -47 15 -150 20 -235 2 -27 7 -81 11 -120 3 -38 8
-92 10 -120 2 -27 7 -81 11 -120 4 -38 8 -83 10 -100 12 -129 16 -176 19 -220
2 -27 6 -80 10 -117 l7 -67 -49 -23 c-26 -13 -50 -25 -53 -28 -3 -3 -21 -13
-40 -24 -150 -81 -345 -238 -430 -346 -19 -25 -37 -47 -40 -50 -4 -3 -17 -26
-29 -52 -28 -60 -35 -150 -14 -192 31 -64 116 -118 206 -133 23 -3 57 -15 75
-26 18 -11 50 -22 70 -24 21 -2 48 -14 62 -28 36 -35 109 -64 157 -63 26 0 55
-8 75 -20 18 -11 46 -22 62 -25 33 -4 33 -6 41 -112 3 -39 9 -104 14 -144 5
-40 8 -82 6 -94 -3 -11 -2 -24 1 -29 5 -8 7 -29 18 -193 3 -38 8 -90 11 -115
3 -25 8 -72 10 -105 2 -33 5 -60 5 -60 1 0 3 -18 5 -40 9 -99 80 -228 158
-288 19 -14 59 -36 87 -47 48 -19 73 -21 289 -20 410 1 384 2 376 -18 -4 -9
-8 -24 -10 -32 -4 -16 -51 -153 -64 -185 -70 -166 -123 -276 -176 -365 -33
-54 -36 -56 -96 -69 -157 -32 -332 -151 -394 -268 -36 -67 -31 -123 12 -129
10 -2 39 -7 66 -12 95 -18 376 1 428 29 11 5 19 7 19 4 0 -3 15 2 33 12 17 9
47 18 66 20 43 3 91 22 92 37 4 46 -3 179 -10 199 -8 21 -3 39 26 99 20 40 40
76 45 79 5 3 9 9 9 13 0 3 11 32 25 63 71 160 155 424 156 491 0 12 4 25 9 27
6 4 274 6 650 5 l66 0 16 -42 c46 -122 53 -280 17 -403 -11 -38 -22 -77 -24
-86 -7 -28 -62 -131 -99 -186 l-35 -52 1 -113 2 -113 28 -13 c16 -8 76 -15
142 -18 106 -4 114 -3 120 16 6 18 8 18 28 5 12 -7 36 -16 54 -20 18 -3 42 -9
55 -13 37 -14 100 -17 313 -17 133 0 207 4 220 12 28 16 23 81 -9 121 -38 46
-108 107 -157 136 -123 73 -253 111 -401 115 l-47 1 15 43 c58 162 73 368 35
495 -5 17 -8 32 -5 32 2 0 -2 12 -9 27 -35 68 -34 71 35 77 35 3 70 6 77 7 8
1 98 45 200 97 117 60 193 105 210 125 28 33 53 77 44 77 -3 0 -1 6 5 12 5 7
13 28 17 46 9 42 9 173 1 200 -4 11 -8 33 -11 48 -2 16 -8 49 -14 73 -5 25 -8
48 -5 52 2 4 0 10 -6 14 -6 4 -8 10 -5 14 2 5 0 23 -5 42 -6 19 -12 48 -15 64
-2 17 -10 64 -19 105 -8 41 -18 95 -21 120 -4 24 -8 47 -10 50 -2 3 -6 25 -10
50 -4 25 -8 47 -10 50 -2 3 -6 21 -9 40 -3 19 -8 45 -10 56 -2 12 -7 37 -10
55 -3 19 -8 45 -11 59 -3 14 -7 39 -10 55 -2 17 -13 81 -24 144 -11 63 -19
116 -18 117 1 1 29 -13 62 -31 257 -146 457 -179 536 -89 16 19 41 84 38 100
-5 31 2 40 30 36 36 -5 70 26 72 65 1 21 3 23 6 8 23 -88 132 -83 133 8 l1 32
18 -22 c34 -40 93 -25 116 30 15 37 2 73 -37 102 l-23 17 30 -7 c17 -4 44 -7
60 -8 25 -2 30 2 33 23 2 21 -4 29 -33 43 -20 9 -42 17 -51 17 -20 0 -30 30
-14 40 7 4 26 4 43 -1 35 -10 67 4 67 29 0 23 -35 43 -82 47 -22 2 -42 6 -46
10 -13 13 16 40 49 45 25 4 35 11 37 27 5 33 -28 45 -99 37 -55 -6 -61 -5 -58
11 2 10 19 23 39 30 39 13 47 31 26 60 -14 19 -15 19 -69 1 -30 -10 -60 -15
-66 -12 -19 12 -12 30 19 48 34 19 40 52 13 66 -20 11 -41 6 -64 -15 -19 -16
-54 -24 -74 -17 -17 7 -8 34 17 52 27 20 23 61 -8 72 -20 8 -37 5 -80 -15 -31
-14 -60 -23 -65 -20 -12 8 -12 35 1 35 6 0 14 10 19 23 18 46 -35 65 -63 23
-9 -14 -27 -26 -43 -28 -27 -3 -88 24 -88 39 -1 35 -70 150 -118 196 -22 21
-30 39 -34 75 -2 26 -8 51 -14 57 -5 5 -9 16 -9 25 0 9 -12 30 -27 48 -25 28
-48 39 -91 41 -7 1 -11 5 -8 9 9 15 -55 113 -85 130 -16 10 -34 31 -39 49 -23
69 -98 147 -151 157 -13 2 -35 8 -49 13 -28 10 -53 10 -87 -1 -16 -5 -23 -3
-24 6 -1 19 -8 62 -25 153 -9 44 -15 89 -15 100 0 11 -5 38 -10 60 -6 22 -12
47 -14 55 -7 36 -46 121 -67 147 -57 69 -165 148 -216 158 -12 2 -26 6 -31 10
-5 3 -31 8 -57 11 -27 3 -51 7 -55 9 -3 2 -37 7 -75 10 -38 4 -82 9 -99 12
-16 2 -46 6 -65 8 -19 2 -60 7 -90 11 -30 3 -68 8 -85 9 -28 3 -89 10 -175 20
-19 2 -62 7 -95 12 -33 4 -77 8 -97 8 -21 0 -38 2 -38 5 0 15 -339 20 -390 6z
m1855 -1302 c42 -8 50 -18 46 -64 -1 -22 7 -65 19 -98 12 -34 20 -75 18 -98
-3 -36 -5 -39 -33 -40 -16 0 -42 -3 -56 -7 -25 -6 -27 -5 -33 41 -7 55 -13 93
-23 142 -9 52 -11 61 -17 103 -6 37 -6 37 21 32 16 -3 42 -8 58 -11z m642
-388 c7 -1 16 -5 19 -9 4 -4 13 -2 21 4 10 9 13 8 13 -4 0 -9 10 -26 22 -37
24 -22 65 -23 106 -1 23 12 28 6 13 -18 -12 -18 6 -67 27 -77 9 -4 28 -8 42
-8 15 -1 26 -8 30 -21 9 -35 37 -67 57 -65 30 4 34 1 24 -18 -7 -13 -5 -26 8
-45 10 -15 20 -24 24 -21 4 4 13 2 20 -4 8 -7 18 -8 22 -4 5 4 6 0 3 -8 -19
-55 -19 -59 6 -81 l25 -22 -20 -25 c-17 -23 -18 -27 -5 -47 12 -19 13 -29 3
-54 -10 -28 -9 -33 22 -65 28 -29 32 -38 22 -50 -18 -21 -32 -16 -52 19 -12
22 -25 31 -48 33 -20 2 -31 -1 -32 -10 -3 -29 -6 -74 -8 -95 -2 -41 -30 -26
-42 22 -15 59 -31 72 -63 52 -16 -11 -26 -30 -31 -57 -7 -44 -15 -53 -39 -44
-13 5 -16 18 -14 58 3 50 2 51 -29 61 -18 5 -35 17 -38 26 -6 19 -121 211
-153 256 -26 36 -25 33 -11 70 6 15 11 30 11 33 0 3 5 16 10 29 12 32 11 167
-1 209 -9 30 -8 33 7 27 9 -4 22 -8 29 -9z m-437 -435 c0 -5 20 -17 44 -27 42
-18 44 -20 44 -63 1 -36 7 -50 32 -73 17 -15 26 -28 19 -28 -9 0 -162 90 -220
130 -4 3 -10 19 -13 36 -5 28 -3 32 27 41 32 10 67 1 67 -16z"/>
</g>
</svg>
